<svg width="1725" height="723" xmlns="http://www.w3.org/2000/svg" xmlns:xlink="http://www.w3.org/1999/xlink" overflow="hidden"><defs><clipPath id="clip0"><rect x="395" y="143" width="1725" height="723"/></clipPath></defs><g clip-path="url(#clip0)" transform="translate(-395 -143)"><path d="M1650.5 366.5C1650.5 339.438 1672.44 317.5 1699.5 317.5 1726.56 317.5 1748.5 339.438 1748.5 366.5 1748.5 393.562 1726.56 415.5 1699.5 415.5 1672.44 415.5 1650.5 393.562 1650.5 366.5Z" stroke="#808080" stroke-width="4.58333" stroke-linecap="round" stroke-miterlimit="8" fill="#808080" fill-rule="evenodd"/><path d="M431.5 191.5C473.931 296.741 516.363 401.982 689.312 508.315 862.262 614.648 1237.16 829.864 1469.2 829.5 1701.23 829.135 1891.36 667.633 2081.5 506.13" stroke="#808080" stroke-width="73.3333" stroke-linecap="round" stroke-miterlimit="8" fill="none" fill-rule="evenodd"/><path d="M0 0C42.4316 105.241 84.8631 210.482 257.813 316.815 430.762 423.148 805.664 638.364 1037.7 638 1269.73 637.636 1459.86 476.133 1650 314.63" stroke="#808080" stroke-width="73.3333" stroke-linecap="round" stroke-miterlimit="8" fill="none" fill-rule="evenodd" transform="matrix(1 0 0 -1 433.5 817.5)"/><path d="M432.302 817.524 431.5 190.5" stroke="#808080" stroke-width="73.3333" stroke-linecap="round" stroke-miterlimit="8" fill="none" fill-rule="evenodd"/></g></svg>