<svg width="1734" height="729" xmlns="http://www.w3.org/2000/svg" xmlns:xlink="http://www.w3.org/1999/xlink" xml:space="preserve" overflow="hidden"><g transform="translate(-3007 -4235)"><path d="M308 93.9596C245.306 101.789 182.612 109.619 131.279 93.9596 79.9456 78.3 39.9725 39.1497 0 0" stroke="#808080" stroke-width="55" stroke-linecap="round" stroke-miterlimit="8" fill="none" fill-rule="evenodd" transform="matrix(-1 0 0 1 3561.5 4655.5)"/><path d="M0 49.5C-6.30201e-15 22.1619 22.1619-6.30201e-15 49.5-1.2604e-14 76.8381-2.5208e-14 99 22.1619 99 49.5 99 76.8381 76.8381 99 49.5 99 22.1619 99-3.15101e-14 76.8381 0 49.5Z" stroke="#808080" stroke-width="4.58333" stroke-linecap="round" stroke-miterlimit="8" fill="#808080" fill-rule="evenodd" transform="matrix(-1 0 0 1 3478.5 4410.5)"/><path d="M0 0C42.6887 106.231 85.3774 212.461 259.375 319.794 433.373 427.128 810.547 644.367 1043.98 644 1277.42 643.632 1468.71 480.611 1660 317.589" stroke="#808080" stroke-width="73.3333" stroke-linecap="round" stroke-miterlimit="8" fill="none" fill-rule="evenodd" transform="matrix(-1 0 0 1 4704.5 4283.5)"/><path d="M4703.5 4915.5C4660.81 4809.27 4618.12 4703.04 4444.12 4595.71 4270.13 4488.37 3892.95 4271.13 3659.52 4271.5 3426.08 4271.87 3234.79 4434.89 3043.5 4597.91" stroke="#808080" stroke-width="73.3333" stroke-linecap="round" stroke-miterlimit="8" fill="none" fill-rule="evenodd"/><path d="M0 0 0.806955 632.547" stroke="#808080" stroke-width="73.3333" stroke-linecap="round" stroke-miterlimit="8" fill="none" fill-rule="evenodd" transform="matrix(1 0 0 -1 4703.5 4916.05)"/><path d="M3558.53 4655.12 3113.5 4650.5" stroke="#808080" stroke-width="55" stroke-linecap="round" stroke-miterlimit="8" fill="none" fill-rule="evenodd"/></g></svg>