<svg width="1739" height="695" xmlns="http://www.w3.org/2000/svg" xmlns:xlink="http://www.w3.org/1999/xlink" overflow="hidden"><defs><clipPath id="clip0"><rect x="214" y="3001" width="1739" height="695"/></clipPath></defs><g clip-path="url(#clip0)" transform="translate(-214 -3001)"><path d="M1480.5 3216.5C1480.5 3190.54 1502.66 3169.5 1530 3169.5 1557.34 3169.5 1579.5 3190.54 1579.5 3216.5 1579.5 3242.46 1557.34 3263.5 1530 3263.5 1502.66 3263.5 1480.5 3242.46 1480.5 3216.5Z" stroke="#808080" stroke-width="4.58333" stroke-linecap="round" stroke-miterlimit="8" fill="#808080" fill-rule="evenodd"/><path d="M250.5 3049.5C293.317 3150.12 336.135 3250.74 510.656 3352.41 685.178 3454.08 1063.49 3659.85 1297.63 3659.5 1531.77 3659.15 1723.63 3504.74 1915.5 3350.32" stroke="#808080" stroke-width="73.3333" stroke-linecap="round" stroke-miterlimit="8" fill="none" fill-rule="evenodd"/><path d="M0 0C42.8173 100.787 85.6346 201.574 260.156 303.408 434.678 405.241 812.988 611.349 1047.13 611 1281.27 610.651 1473.13 455.983 1665 301.315" stroke="#808080" stroke-width="73.3333" stroke-linecap="round" stroke-miterlimit="8" fill="none" fill-rule="evenodd" transform="matrix(1 0 0 -1 251.5 3648.5)"/><path d="M251.31 3648.91 250.5 3049.5" stroke="#808080" stroke-width="73.3333" stroke-linecap="round" stroke-miterlimit="8" fill="none" fill-rule="evenodd"/><path d="M1776.85 3440.32 1517.5 3436.5" stroke="#808080" stroke-width="55" stroke-linecap="round" stroke-miterlimit="8" fill="none" fill-rule="evenodd"/></g></svg>