<svg width="1724" height="723" xmlns="http://www.w3.org/2000/svg" xmlns:xlink="http://www.w3.org/1999/xlink" overflow="hidden"><defs><clipPath id="clip0"><rect x="212" y="4254" width="1724" height="723"/></clipPath></defs><g clip-path="url(#clip0)" transform="translate(-212 -4254)"><path d="M1690.5 4763.55C1628.21 4771.3 1565.93 4779.05 1514.93 4763.55 1463.93 4748.04 1424.21 4709.27 1384.5 4670.5" stroke="#808080" stroke-width="55" stroke-linecap="round" stroke-miterlimit="8" fill="none" fill-rule="evenodd"/><path d="M1467.5 4477.5C1467.5 4450.44 1489.21 4428.5 1516 4428.5 1542.79 4428.5 1564.5 4450.44 1564.5 4477.5 1564.5 4504.56 1542.79 4526.5 1516 4526.5 1489.21 4526.5 1467.5 4504.56 1467.5 4477.5Z" stroke="#808080" stroke-width="4.58333" stroke-linecap="round" stroke-miterlimit="8" fill="#808080" fill-rule="evenodd"/><path d="M248.5 4302.5C290.906 4407.74 333.312 4512.98 506.156 4619.31 679.001 4725.65 1053.68 4940.86 1285.57 4940.5 1517.46 4940.14 1707.48 4778.63 1897.5 4617.13" stroke="#808080" stroke-width="73.3333" stroke-linecap="round" stroke-miterlimit="8" fill="none" fill-rule="evenodd"/><path d="M0 0C42.4316 105.406 84.8631 210.811 257.813 317.312 430.762 423.812 805.664 639.364 1037.7 639 1269.73 638.635 1459.86 476.879 1650 315.123" stroke="#808080" stroke-width="73.3333" stroke-linecap="round" stroke-miterlimit="8" fill="none" fill-rule="evenodd" transform="matrix(1 0 0 -1 249.5 4929.5)"/><path d="M249.302 4929.52 248.5 4302.5" stroke="#808080" stroke-width="73.3333" stroke-linecap="round" stroke-miterlimit="8" fill="none" fill-rule="evenodd"/><path d="M0 0 442.268 4.58333" stroke="#808080" stroke-width="55" stroke-linecap="round" stroke-miterlimit="8" fill="none" fill-rule="evenodd" transform="matrix(1 0 0 -1 1386.5 4671.08)"/></g></svg>