<svg width="1742" height="694" xmlns="http://www.w3.org/2000/svg" xmlns:xlink="http://www.w3.org/1999/xlink" overflow="hidden"><defs><clipPath id="clip0"><rect x="161" y="4919" width="1742" height="694"/></clipPath></defs><g clip-path="url(#clip0)" transform="translate(-161 -4919)"><path d="M1429.5 5133.5C1429.5 5107.54 1451.66 5086.5 1479 5086.5 1506.34 5086.5 1528.5 5107.54 1528.5 5133.5 1528.5 5159.46 1506.34 5180.5 1479 5180.5 1451.66 5180.5 1429.5 5159.46 1429.5 5133.5Z" stroke="#808080" stroke-width="4.58333" stroke-linecap="round" stroke-miterlimit="8" fill="#808080" fill-rule="evenodd"/><path d="M197.5 4966.5C240.395 5067.12 283.289 5167.74 458.125 5269.41 632.961 5371.08 1011.95 5576.85 1246.52 5576.5 1481.08 5576.15 1673.29 5421.74 1865.5 5267.32" stroke="#808080" stroke-width="73.3333" stroke-linecap="round" stroke-miterlimit="8" fill="none" fill-rule="evenodd"/><path d="M0 0C42.8945 100.622 85.7889 201.244 260.625 302.911 435.461 404.578 814.453 610.348 1049.02 610 1283.58 609.652 1475.79 455.237 1668 300.822" stroke="#808080" stroke-width="73.3333" stroke-linecap="round" stroke-miterlimit="8" fill="none" fill-rule="evenodd" transform="matrix(1 0 0 -1 198.5 5565.5)"/><path d="M198.311 5565.91 197.5 4966.5" stroke="#808080" stroke-width="73.3333" stroke-linecap="round" stroke-miterlimit="8" fill="none" fill-rule="evenodd"/><path d="M0 0 148.762 0.522211" stroke="#808080" stroke-width="55" stroke-linecap="round" stroke-miterlimit="8" fill="none" fill-rule="evenodd" transform="matrix(-1 0 0 1 1726.26 5357.5)"/><path d="M1568.69 5356.97C1551.99 5356.03 1535.51 5352.75 1519.82 5347.23" stroke="#808080" stroke-width="55" stroke-linecap="round" stroke-miterlimit="8" fill="none" fill-rule="evenodd"/></g></svg>