<svg width="1724" height="723" xmlns="http://www.w3.org/2000/svg" xmlns:xlink="http://www.w3.org/1999/xlink" overflow="hidden"><defs><clipPath id="clip0"><rect x="212" y="2169" width="1724" height="723"/></clipPath></defs><g clip-path="url(#clip0)" transform="translate(-212 -2169)"><path d="M306 75.7148C243.713 82.0242 181.426 88.3337 130.426 75.7148 79.4265 63.0959 39.713 31.5477 0 0" stroke="#808080" stroke-width="55" stroke-linecap="round" stroke-miterlimit="8" fill="none" fill-rule="evenodd" transform="matrix(1 0 0 -1 1444.5 2686.5)"/><path d="M1467.5 2392C1467.5 2364.66 1489.21 2342.5 1516 2342.5 1542.79 2342.5 1564.5 2364.66 1564.5 2392 1564.5 2419.34 1542.79 2441.5 1516 2441.5 1489.21 2441.5 1467.5 2419.34 1467.5 2392Z" stroke="#808080" stroke-width="4.58333" stroke-linecap="round" stroke-miterlimit="8" fill="#808080" fill-rule="evenodd"/><path d="M248.5 2216.5C290.906 2321.91 333.312 2427.31 506.156 2533.81 679.001 2640.31 1053.68 2855.86 1285.57 2855.5 1517.46 2855.14 1707.48 2693.38 1897.5 2531.62" stroke="#808080" stroke-width="73.3333" stroke-linecap="round" stroke-miterlimit="8" fill="none" fill-rule="evenodd"/><path d="M0 0C42.4316 105.241 84.8631 210.482 257.813 316.815 430.762 423.148 805.664 638.364 1037.7 638 1269.73 637.636 1459.86 476.133 1650 314.63" stroke="#808080" stroke-width="73.3333" stroke-linecap="round" stroke-miterlimit="8" fill="none" fill-rule="evenodd" transform="matrix(1 0 0 -1 249.5 2843.5)"/><path d="M249.302 2843.52 248.5 2216.5" stroke="#808080" stroke-width="73.3333" stroke-linecap="round" stroke-miterlimit="8" fill="none" fill-rule="evenodd"/></g></svg>